<svg width="21" height="21" viewBox="0 0 21 21" fill="none" xmlns="http://www.w3.org/2000/svg">
<path d="M20.6454 4.31905C20.575 4.2348 20.487 4.16704 20.3875 4.12055C20.2881 4.07406 20.1796 4.04997 20.0698 4.04999H4.94607L4.37607 0.915925C4.34468 0.743114 4.25363 0.586802 4.1188 0.474242C3.98396 0.361682 3.8139 0.300013 3.63826 0.299988H1.31982C1.12091 0.299988 0.930146 0.379005 0.789494 0.519658C0.648842 0.66031 0.569824 0.851075 0.569824 1.04999C0.569824 1.2489 0.648842 1.43967 0.789494 1.58032C0.930146 1.72097 1.12091 1.79999 1.31982 1.79999H3.00732L5.40357 14.9522C5.47416 15.3422 5.64654 15.7067 5.90326 16.0087C5.54893 16.3397 5.29318 16.7623 5.16438 17.2297C5.03557 17.6972 5.03874 18.1911 5.17354 18.6569C5.30833 19.1226 5.56949 19.5419 5.92804 19.8683C6.28659 20.1947 6.72853 20.4154 7.20485 20.5059C7.68117 20.5965 8.17326 20.5533 8.62656 20.3813C9.07986 20.2092 9.47664 19.915 9.77293 19.5312C10.0692 19.1474 10.2534 18.689 10.3051 18.2069C10.3568 17.7249 10.2739 17.2379 10.0658 16.8H14.3239C14.1561 17.1513 14.0693 17.5357 14.0698 17.925C14.0698 18.4442 14.2238 18.9517 14.5122 19.3834C14.8007 19.815 15.2106 20.1515 15.6903 20.3502C16.1699 20.5489 16.6977 20.6008 17.2069 20.4995C17.7161 20.3983 18.1839 20.1483 18.551 19.7811C18.9181 19.414 19.1681 18.9463 19.2694 18.4371C19.3707 17.9279 19.3187 17.4001 19.12 16.9204C18.9213 16.4408 18.5849 16.0308 18.1532 15.7424C17.7215 15.4539 17.214 15.3 16.6948 15.3H7.61701C7.44137 15.3 7.27131 15.2383 7.13648 15.1257C7.00165 15.0132 6.9106 14.8569 6.8792 14.684L6.58201 13.05H17.457C17.9839 13.0499 18.4941 12.8649 18.8986 12.5272C19.3031 12.1895 19.5763 11.7206 19.6705 11.2022L20.8104 4.93405C20.8297 4.82571 20.825 4.71446 20.7965 4.60817C20.7679 4.50189 20.7164 4.40318 20.6454 4.31905ZM8.81982 17.925C8.81982 18.1475 8.75384 18.365 8.63023 18.55C8.50661 18.735 8.33091 18.8792 8.12534 18.9644C7.91978 19.0495 7.69358 19.0718 7.47535 19.0284C7.25712 18.985 7.05666 18.8778 6.89933 18.7205C6.74199 18.5631 6.63485 18.3627 6.59144 18.1445C6.54803 17.9262 6.57031 17.7 6.65546 17.4945C6.74061 17.2889 6.8848 17.1132 7.06981 16.9896C7.25481 16.866 7.47232 16.8 7.69482 16.8C7.99319 16.8 8.27934 16.9185 8.49032 17.1295C8.7013 17.3405 8.81982 17.6266 8.81982 17.925ZM17.8198 17.925C17.8198 18.1475 17.7538 18.365 17.6302 18.55C17.5066 18.735 17.3309 18.8792 17.1253 18.9644C16.9198 19.0495 16.6936 19.0718 16.4753 19.0284C16.2571 18.985 16.0567 18.8778 15.8993 18.7205C15.742 18.5631 15.6348 18.3627 15.5914 18.1445C15.548 17.9262 15.5703 17.7 15.6555 17.4945C15.7406 17.2889 15.8848 17.1132 16.0698 16.9896C16.2548 16.866 16.4723 16.8 16.6948 16.8C16.9932 16.8 17.2793 16.9185 17.4903 17.1295C17.7013 17.3405 17.8198 17.6266 17.8198 17.925Z" fill="white"/>
</svg>
